<svg xmlns="http://www.w3.org/2000/svg" viewBox="0 0 84 84"><circle cx="42" cy="42" r="32.36" fill="#fff"/><path d="M42 0C18.8 0 0 18.81 0 42s18.8 42 42 42 42-18.81 42-42S65.19 0 42 0zm.96 36.54h.03a8.59 8.59 0 01-.24-2.05c0-4.96 4.03-8.99 8.99-8.99 2.59 0 4.92 1.09 6.56 2.85 1.68-.33 3.27-.91 4.75-1.67.32-.16.64-.32.95-.49a9.024 9.024 0 01-2.88 4.18c-.34.27-.68.53-1.06.74h.05c-.02 0-.03.02-.05.03 1.47-.17 2.88-.53 4.22-1.03.31-.11.61-.22.92-.34-1.2 1.78-2.72 3.36-4.47 4.61.03.39.03.77.03 1.17 0 11.88-9.04 25.58-25.58 25.58-5.08 0-9.8-1.48-13.78-4.04a17.943 17.943 0 0010.63-1.99c.05-.03.11-.05.16-.08.16-.09.32-.19.47-.28.7-.41 1.38-.85 2.03-1.35h-.03c.01 0 .02-.01.03-.02a8.995 8.995 0 01-7.86-4.93c-.21-.41-.38-.85-.52-1.3.55.1 1.1.16 1.68.16s1.17-.07 1.73-.18c.21-.03.43-.06.64-.11-.02 0-.03-.01-.05-.01.02 0 .04 0 .05-.01-4.12-.83-7.22-4.46-7.22-8.82v-.1c.96.53 2.02.88 3.14 1.03.31.05.61.09.92.11-.01 0-.02-.02-.03-.03h.05c-2.41-1.61-4-4.36-4-7.48 0-1.41.35-2.74.93-3.93.1-.19.19-.39.3-.57 4.37 5.36 10.88 8.91 18.24 9.35.09 0 .17.02.26.03z" fill="#1d9eef"/></svg>