<?xml version="1.0" encoding="UTF-8"?><svg xmlns="http://www.w3.org/2000/svg" viewBox="0 0 84 84"><defs><style>.d{fill:#fff;}.e{fill:#cc2e8f;}</style></defs><g id="a"/><g id="b"><g id="c"><g><circle class="e" cx="42" cy="42" r="42"/><g><path class="d" d="M34.9,55.57h14.2c3.41,0,6.19-2.78,6.19-6.19v-14.76c0-3.41-2.78-6.19-6.19-6.19h-14.2c-3.41,0-6.19,2.78-6.19,6.19v14.76c0,3.41,2.78,6.19,6.19,6.19Zm16.1-24.53c1.08,0,1.96,.88,1.96,1.96s-.88,1.96-1.96,1.96-1.96-.88-1.96-1.96,.88-1.96,1.96-1.96Zm-9,2.21c4.82,0,8.75,3.92,8.75,8.74s-3.92,8.74-8.75,8.74-8.74-3.92-8.74-8.74,3.92-8.74,8.74-8.74Z"/><path class="d" d="M42,48.02c3.32,0,6.02-2.7,6.02-6.02s-2.7-6.02-6.02-6.02-6.02,2.7-6.02,6.02,2.7,6.02,6.02,6.02Z"/><path class="d" d="M55,19.4H29c-5.3,0-9.6,4.3-9.6,9.6v26c0,5.3,4.3,9.6,9.6,9.6h26c5.3,0,9.6-4.3,9.6-9.6V29c0-5.3-4.3-9.6-9.6-9.6Zm-29.7,15.22c0-5.3,4.3-9.6,9.6-9.6h14.2c5.3,0,9.59,4.3,9.59,9.6v14.76c0,5.3-4.3,9.6-9.59,9.6h-14.2c-5.3,0-9.6-4.3-9.6-9.6v-14.76Z"/></g></g></g></g></svg>